HIERARCHY
ROOT root
{
	OFFSET 0.000000 0.000000 0.000000
	CHANNELS 6 Xposition Yposition Zposition Zrotation Yrotation Xrotation
	JOINT lhip
	{
		OFFSET 0.058581 -0.082280 -0.017664
		CHANNELS 3 Zrotation Yrotation Xrotation
		JOINT lknee
		{
			OFFSET 0.043451 -0.386469 0.008037
			CHANNELS 3 Zrotation Yrotation Xrotation
			JOINT lankle
			{
				OFFSET -0.014790 -0.426874 -0.037428
				CHANNELS 3 Zrotation Yrotation Xrotation
				JOINT ltoe
				{
					OFFSET 0.041054 -0.060286 0.122042
					CHANNELS 3 Zrotation Yrotation Xrotation
					End Site
					{
						OFFSET 0.000000 0.000000 0.000000
					}
				}
			}
		}
	}
	JOINT rhip
	{
		OFFSET -0.060310 -0.090513 -0.013543
		CHANNELS 3 Zrotation Yrotation Xrotation
		JOINT rknee
		{
			OFFSET -0.043257 -0.383688 -0.004843
			CHANNELS 3 Zrotation Yrotation Xrotation
			JOINT rankle
			{
				OFFSET 0.019056 -0.420046 -0.034562
				CHANNELS 3 Zrotation Yrotation Xrotation
				JOINT rtoe
				{
					OFFSET -0.034840 -0.062106 0.130323
					CHANNELS 3 Zrotation Yrotation Xrotation
					End Site
					{
						OFFSET 0.000000 0.000000 0.000000
					}
				}
			}
		}
	}
	JOINT lowerback
	{
		OFFSET 0.004439 0.124404 -0.038385
		CHANNELS 3 Zrotation Yrotation Xrotation
		JOINT upperback
		{
			OFFSET 0.004488 0.137956 0.026820
			CHANNELS 3 Zrotation Yrotation Xrotation
			JOINT chest
			{
				OFFSET -0.002265 0.056032 0.002855
				CHANNELS 3 Zrotation Yrotation Xrotation
				JOINT lowerneck
				{
					OFFSET -0.013390 0.211636 -0.033468
					CHANNELS 3 Zrotation Yrotation Xrotation
					JOINT upperneck
					{
						OFFSET 0.010113 0.088937 0.050410
						CHANNELS 3 Zrotation Yrotation Xrotation
						End Site
						{
							OFFSET 0.000000 0.000000 0.000000
						}
					}
				}
				JOINT lclavicle
				{
					OFFSET 0.071702 0.114000 -0.018898
					CHANNELS 3 Zrotation Yrotation Xrotation
					JOINT lshoulder
					{
						OFFSET 0.122921 0.045205 -0.019046
						CHANNELS 3 Zrotation Yrotation Xrotation
						JOINT lelbow
						{
							OFFSET 0.255332 -0.015649 -0.022946
							CHANNELS 3 Zrotation Yrotation Xrotation
							JOINT lwrist
							{
								OFFSET 0.265709 0.012698 -0.007375
								CHANNELS 3 Zrotation Yrotation Xrotation
								End Site
								{
									OFFSET 0.000000 0.000000 0.000000
								}
							}
						}
					}
				}
				JOINT rclavicle
				{
					OFFSET -0.082954 0.112472 -0.023707
					CHANNELS 3 Zrotation Yrotation Xrotation
					JOINT rshoulder
					{
						OFFSET -0.113228 0.046853 -0.008472
						CHANNELS 3 Zrotation Yrotation Xrotation
						JOINT relbow
						{
							OFFSET -0.260127 -0.014369 -0.031269
							CHANNELS 3 Zrotation Yrotation Xrotation
							JOINT rwrist
							{
								OFFSET -0.269108 0.006794 -0.006027
								CHANNELS 3 Zrotation Yrotation Xrotation
								End Site
								{
									OFFSET 0.000000 0.000000 0.000000
								}
							}
						}
					}
				}
			}
		}
	}
}
MOTION
Frames: 7
Frame Time: 0.033333
1.717626 1.513909 1.013396 -89.403044 2.824075 86.383300 2.193927 -1.241275 7.875231 -2.356946 -15.321774 1.999509 5.053827 7.859981 -16.119884 0.000000 -0.000000 0.000000 2.764225 -2.294455 7.300757 3.827540 0.527843 4.129519 4.086422 -5.616332 -10.289635 0.000000 -0.000000 0.000000 -2.028561 2.056663 4.378797 1.812429 -2.324071 3.064602 1.176960 -1.468625 5.500390 4.827922 -0.019435 0.007350 6.610896 -5.565219 2.821669 -25.385980 5.355004 0.649082 -61.428973 -7.782225 8.182706 10.787130 -26.869152 2.306369 -2.417702 -0.323534 -8.757877 24.216250 -4.054708 -1.730300 62.697142 -0.365449 10.568185 -14.963775 23.931801 -5.140035 7.550670 -0.739064 -9.845806 
1.716993 1.513941 1.013298 -89.331645 2.787414 86.209826 2.141790 -1.354976 8.145180 -2.336536 -15.214787 1.911682 4.947426 7.985399 -15.788799 0.000000 -0.000000 0.000000 2.885423 -1.508052 7.711114 3.739669 0.118486 3.863484 4.239275 -6.079555 -10.191123 0.000000 -0.000000 0.000000 -2.036013 1.912717 4.327607 1.768884 -2.255239 3.141798 1.169921 -1.527590 5.755214 4.935180 0.411880 0.413306 6.680384 -5.094770 3.227556 -25.284214 5.480997 0.748863 -61.587106 -8.151048 8.517596 11.026138 -28.348179 2.244820 -1.966961 -0.278478 -9.398223 24.271149 -4.071140 -1.674027 62.677836 -0.321834 10.765484 -15.162670 23.691808 -5.315444 6.890310 -0.981962 -9.818318 
1.716408 1.514247 1.013213 -89.368377 2.753191 86.112569 2.133205 -1.389777 8.281403 -2.348828 -15.264387 1.913692 4.882454 8.057856 -15.849799 0.000000 -0.000000 0.000000 2.904787 -1.111672 8.039056 3.748018 -0.052200 3.623038 4.282459 -6.208604 -10.154588 0.000000 -0.000000 0.000000 -2.020506 1.933253 4.338853 1.818194 -2.220226 3.177853 1.116494 -1.611411 5.869093 4.931110 0.049725 1.082223 6.629275 -5.461041 3.578564 -25.333706 5.542762 0.786505 -61.556825 -8.450151 8.673897 11.060472 -29.151195 2.297728 -1.853754 -0.232485 -9.346755 24.279556 -4.245873 -1.752366 62.516642 -0.499267 10.743500 -15.149965 23.672145 -5.414528 6.657030 -0.873512 -9.674883 
1.717105 1.514005 1.013183 -89.649453 2.709351 86.538949 2.075743 -1.472896 7.702766 -2.459583 -14.951672 2.078775 5.071549 8.023773 -15.753481 0.000000 -0.000000 0.000000 2.619898 -2.085062 7.164031 3.865267 0.607208 4.180999 4.136473 -5.649987 -10.249392 0.000000 -0.000000 0.000000 -1.956855 2.126604 3.956210 1.852836 -2.249612 3.162036 1.076234 -1.675073 5.786551 5.032644 0.760033 1.076396 6.827678 -4.812373 4.084777 -25.105419 5.414950 0.651740 -61.977443 -8.652166 8.908470 11.108467 -28.921278 2.545370 -1.708224 -0.664453 -9.459440 24.043331 -4.363165 -1.467665 62.691039 -0.319620 10.682908 -15.360466 23.421417 -5.216589 6.583206 -1.003910 -9.649921 
1.716664 1.513979 1.013130 -89.657015 2.714075 86.495195 2.093648 -1.437704 7.779410 -2.469331 -14.913200 2.080762 5.116000 7.987595 -15.754949 0.000000 -0.000000 0.000000 2.609778 -2.212576 7.256039 3.843488 0.603123 4.149658 4.127419 -5.547408 -10.255123 0.000000 -0.000000 0.000000 -1.906137 2.135937 3.986603 1.906560 -2.263137 3.245976 1.017599 -1.730417 5.806318 4.915518 0.071188 1.627213 6.685150 -5.476314 4.243872 -25.162755 5.435678 0.828670 -61.979732 -8.682062 8.953623 11.123121 -29.139586 2.582009 -1.916808 -0.621956 -9.615687 24.058300 -4.363552 -1.533441 62.607519 -0.355310 10.605913 -15.384928 23.490737 -5.239978 6.597787 -1.042265 -9.561862 
1.716000 1.513588 1.012965 -89.720030 2.663681 86.529583 2.002357 -1.420662 7.841474 -2.457681 -14.925199 1.999317 5.171617 8.044214 -15.834141 0.000000 -0.000000 0.000000 2.528021 -2.178560 7.291281 3.901682 0.703662 4.094281 4.079919 -5.475593 -10.378985 0.000000 -0.000000 0.000000 -1.811764 2.105999 3.783058 1.888047 -2.301839 3.479358 0.896095 -1.734590 5.882284 4.831475 -0.161248 2.213697 6.571365 -5.636439 4.168015 -25.217188 5.497983 0.794627 -61.990698 -8.650859 8.899265 10.914114 -28.922545 2.817495 -2.540543 -0.463755 -9.393643 24.032007 -4.404397 -1.531712 62.561662 -0.243077 10.559713 -15.414332 23.674264 -5.290557 6.812454 -1.050553 -9.596964 
1.715176 1.514221 1.012820 -89.256440 2.655067 86.167231 2.092134 -1.504959 8.220121 -2.505263 -15.189044 1.995089 4.937706 8.026397 -15.798806 0.000000 -0.000000 0.000000 3.003912 -0.563718 8.307848 3.644787 -0.319164 3.145376 4.111518 -6.567605 -10.086086 0.000000 -0.000000 0.000000 -1.807058 1.709067 4.302273 1.828487 -2.434884 3.297342 0.955627 -1.828407 6.036586 4.974551 0.188289 2.136462 6.561355 -5.256653 4.534296 -25.302154 5.558412 1.016531 -62.011967 -8.441614 8.739972 11.051448 -28.505729 2.730540 -2.146656 -0.426659 -9.170108 24.005192 -4.491073 -1.665909 62.467620 -0.261997 10.747334 -15.379984 23.864784 -5.413013 6.600251 -0.881182 -9.716097 
